<?xml version="1.0" encoding="UTF-8"?>
<svg xmlns="http://www.w3.org/2000/svg" xmlns:xlink="http://www.w3.org/1999/xlink" width="24px" height="24px" viewBox="0 0 24 24" version="1.1">
<g id="surface1">
<path style=" stroke:none;fill-rule:nonzero;fill:rgb(25%,25%,25%);fill-opacity:1;" d="M 11.035156 0.28125 C 10.8125 0.304688 10.386719 0.378906 10.09375 0.445312 C 7.058594 1.128906 4.609375 3.398438 3.722656 6.363281 C 3.433594 7.3125 3.386719 7.6875 3.386719 9 C 3.390625 10.21875 3.4375 10.691406 3.652344 11.683594 C 4.527344 15.703125 7.34375 19.957031 11.40625 23.371094 C 11.996094 23.863281 11.949219 23.855469 12.355469 23.53125 C 15.425781 21.050781 18.171875 17.503906 19.480469 14.320312 C 20.511719 11.8125 20.863281 9.167969 20.433594 7.125 C 19.773438 3.910156 17.308594 1.320312 14.15625 0.511719 C 13.246094 0.277344 11.917969 0.179688 11.035156 0.28125 Z M 13.007812 2.136719 C 14.285156 2.355469 15.5 2.96875 16.453125 3.847656 C 17.265625 4.613281 17.882812 5.554688 18.234375 6.582031 C 18.457031 7.214844 18.554688 7.761719 18.589844 8.507812 C 18.660156 10.457031 17.976562 12.191406 16.589844 13.566406 C 15.648438 14.5 14.429688 15.140625 13.074219 15.402344 C 12.492188 15.519531 11.257812 15.519531 10.675781 15.402344 C 7.902344 14.855469 5.859375 12.839844 5.257812 10.054688 C 5.136719 9.496094 5.136719 8.035156 5.261719 7.472656 C 5.558594 6.101562 6.144531 5.019531 7.125 4.035156 C 8.222656 2.9375 9.429688 2.332031 11.03125 2.089844 C 11.375 2.039062 12.605469 2.066406 13.007812 2.136719 Z M 13.007812 2.136719 "/>
<path style=" stroke:none;fill-rule:nonzero;fill:rgb(25%,25%,25%);fill-opacity:1;" d="M 10.886719 4.65625 C 10.636719 4.757812 10.472656 4.996094 10.421875 5.351562 L 10.394531 5.566406 L 10.085938 5.597656 C 9.730469 5.628906 9.453125 5.757812 9.253906 5.984375 C 9.105469 6.15625 9.003906 6.417969 8.625 7.714844 C 8.476562 8.234375 8.457031 8.273438 8.347656 8.273438 C 8.15625 8.277344 7.855469 8.4375 7.730469 8.605469 C 7.621094 8.761719 7.621094 8.789062 7.621094 9.710938 L 7.621094 10.652344 L 7.746094 10.847656 C 7.964844 11.171875 8.128906 11.222656 9.382812 11.328125 C 11.480469 11.507812 12.777344 11.503906 14.871094 11.304688 C 15.632812 11.230469 15.785156 11.195312 15.964844 11.035156 C 16.207031 10.808594 16.25 10.625 16.25 9.71875 C 16.25 8.816406 16.222656 8.671875 16.003906 8.46875 C 15.933594 8.410156 15.800781 8.328125 15.699219 8.296875 C 15.5 8.226562 15.570312 8.410156 15.042969 6.675781 C 14.890625 6.183594 14.855469 6.113281 14.652344 5.921875 C 14.402344 5.671875 14.175781 5.59375 13.738281 5.59375 L 13.425781 5.59375 L 13.425781 5.425781 C 13.425781 5.105469 13.199219 4.769531 12.894531 4.65625 C 12.726562 4.589844 11.046875 4.59375 10.886719 4.65625 Z M 14.046875 6.566406 C 14.105469 6.628906 14.605469 8.140625 14.605469 8.246094 C 14.605469 8.257812 13.425781 8.273438 11.988281 8.273438 C 9.523438 8.273438 9.378906 8.269531 9.402344 8.1875 C 9.664062 7.285156 9.882812 6.628906 9.9375 6.566406 C 10.003906 6.488281 10.164062 6.484375 11.996094 6.484375 C 13.824219 6.484375 13.984375 6.488281 14.046875 6.566406 Z M 9.253906 9.070312 C 9.449219 9.128906 9.636719 9.347656 9.683594 9.570312 C 9.753906 9.90625 9.433594 10.292969 9.097656 10.292969 C 8.714844 10.292969 8.441406 10.027344 8.441406 9.652344 C 8.441406 9.425781 8.605469 9.191406 8.839844 9.089844 C 9.015625 9.015625 9.035156 9.015625 9.253906 9.070312 Z M 15.335938 9.144531 C 15.816406 9.464844 15.632812 10.21875 15.058594 10.28125 C 14.675781 10.324219 14.367188 10.050781 14.367188 9.667969 C 14.367188 9.179688 14.925781 8.878906 15.335938 9.144531 Z M 15.335938 9.144531 "/>
<path style=" stroke:none;fill-rule:nonzero;fill:rgb(25%,25%,25%);fill-opacity:1;" d="M 8.347656 11.894531 C 8.347656 12.425781 8.578125 12.710938 9.003906 12.710938 C 9.417969 12.710938 9.664062 12.425781 9.664062 11.949219 C 9.664062 11.730469 9.65625 11.707031 9.5625 11.699219 C 9.5 11.699219 9.207031 11.671875 8.902344 11.640625 L 8.347656 11.582031 Z M 8.347656 11.894531 "/>
<path style=" stroke:none;fill-rule:nonzero;fill:rgb(25%,25%,25%);fill-opacity:1;" d="M 15.285156 11.609375 C 15.132812 11.628906 14.839844 11.664062 14.644531 11.683594 L 14.273438 11.714844 L 14.273438 11.957031 C 14.273438 12.289062 14.390625 12.5 14.652344 12.632812 C 14.761719 12.695312 14.902344 12.742188 14.957031 12.742188 C 15.140625 12.742188 15.464844 12.535156 15.554688 12.363281 C 15.636719 12.199219 15.679688 11.558594 15.605469 11.570312 C 15.582031 11.574219 15.441406 11.59375 15.285156 11.609375 Z M 15.285156 11.609375 "/>
</g>
</svg>
