<?xml version="1.0" encoding="UTF-8"?>
<svg xmlns="http://www.w3.org/2000/svg" xmlns:xlink="http://www.w3.org/1999/xlink" width="16px" height="16px" viewBox="0 0 16 16" version="1.1">
<g id="surface1">
<path style=" stroke:none;fill-rule:nonzero;fill:rgb(0%,0%,0%);fill-opacity:1;" d="M 15.636719 0 L 14.152344 0 C 14.050781 0 13.953125 0.0429688 13.882812 0.117188 C 13.8125 0.191406 13.773438 0.289062 13.777344 0.394531 L 13.902344 2.980469 C 12.433594 1.246094 10.273438 0.246094 8 0.25 C 3.730469 0.25 0.246094 3.734375 0.25 8.007812 C 0.253906 12.285156 3.722656 15.75 8 15.75 C 9.917969 15.753906 11.769531 15.039062 13.191406 13.753906 C 13.269531 13.683594 13.316406 13.585938 13.316406 13.484375 C 13.320312 13.378906 13.28125 13.28125 13.207031 13.207031 L 12.144531 12.144531 C 12.007812 12.007812 11.78125 12 11.632812 12.128906 C 9.914062 13.640625 7.4375 13.929688 5.417969 12.855469 C 3.394531 11.777344 2.253906 9.5625 2.546875 7.292969 C 2.839844 5.023438 4.511719 3.171875 6.738281 2.644531 C 8.96875 2.121094 11.289062 3.03125 12.566406 4.929688 L 9.394531 4.777344 C 9.289062 4.773438 9.191406 4.8125 9.117188 4.882812 C 9.042969 4.953125 9 5.050781 9 5.152344 L 9 6.636719 C 9 6.84375 9.167969 7.011719 9.375 7.011719 L 15.636719 7.011719 C 15.84375 7.011719 16.011719 6.84375 16.011719 6.636719 L 16.011719 0.375 C 16.011719 0.167969 15.84375 0 15.636719 0 Z M 15.636719 0 "/>
</g>
</svg>
