<?xml version="1.0" encoding="UTF-8"?>
<svg xmlns="http://www.w3.org/2000/svg" xmlns:xlink="http://www.w3.org/1999/xlink" width="32px" height="32px" viewBox="0 0 32 32" version="1.1">
<g id="surface1">
<path style=" stroke:none;fill-rule:nonzero;fill:rgb(25%,25%,25%);fill-opacity:1;" d="M 30.800781 16.390625 L 29.417969 16.390625 C 28.757812 16.390625 27.960938 15.914062 27.644531 15.335938 L 25.371094 11.140625 C 25.054688 10.5625 24.253906 10.085938 23.597656 10.085938 L 12.914062 10.085938 C 12.253906 10.085938 11.382812 10.511719 10.980469 11.035156 L 7.585938 15.4375 C 7.179688 15.960938 6.308594 16.390625 5.648438 16.390625 L 3.785156 16.390625 C 1.699219 16.390625 0.421875 17.382812 0.121094 19.386719 L 0 21.492188 C 0 22.152344 0.539062 22.695312 1.199219 22.695312 L 4.15625 22.695312 C 4.300781 24.378906 5.722656 25.707031 7.445312 25.707031 C 9.167969 25.707031 10.585938 24.378906 10.734375 22.695312 L 22.371094 22.695312 C 22.511719 24.183594 23.769531 25.347656 25.296875 25.347656 C 26.824219 25.347656 28.078125 24.183594 28.226562 22.695312 L 30.800781 22.695312 C 31.460938 22.695312 32 22.152344 32 21.492188 L 32 17.589844 C 32 16.929688 31.460938 16.390625 30.800781 16.390625 Z M 7.445312 23.875 C 6.632812 23.875 5.972656 23.21875 5.972656 22.40625 C 5.972656 21.59375 6.632812 20.9375 7.445312 20.9375 C 8.257812 20.9375 8.914062 21.59375 8.914062 22.40625 C 8.914062 23.21875 8.257812 23.875 7.445312 23.875 Z M 18.191406 16.335938 L 9.507812 16.335938 L 9.960938 15.75 L 12.734375 12.152344 C 12.921875 11.910156 13.449219 11.648438 13.757812 11.648438 L 18.191406 11.648438 Z M 19.632812 16.335938 L 19.632812 11.648438 L 23 11.648438 C 23.25 11.648438 23.660156 11.894531 23.78125 12.117188 L 25.941406 16.335938 Z M 25.296875 23.875 C 24.484375 23.875 23.824219 23.21875 23.824219 22.40625 C 23.824219 21.59375 24.484375 20.9375 25.296875 20.9375 C 26.109375 20.9375 26.765625 21.59375 26.765625 22.40625 C 26.765625 23.21875 26.109375 23.875 25.296875 23.875 Z M 25.296875 23.875 "/>
<path style=" stroke:none;fill-rule:nonzero;fill:rgb(25%,25%,25%);fill-opacity:1;" d="M 14.117188 7.675781 C 14.117188 7.289062 14.433594 6.972656 14.820312 6.972656 L 21.398438 6.972656 C 21.789062 6.972656 22.105469 7.289062 22.105469 7.675781 L 22.105469 9.585938 L 22.785156 9.585938 L 22.785156 7.675781 C 22.785156 6.914062 22.164062 6.292969 21.398438 6.292969 L 14.820312 6.292969 C 14.058594 6.292969 13.4375 6.914062 13.4375 7.675781 L 13.4375 9.585938 L 14.117188 9.585938 Z M 14.117188 7.675781 "/>
<path style=" stroke:none;fill-rule:nonzero;fill:rgb(25%,25%,25%);fill-opacity:1;" d="M 15.574219 9.371094 L 15.921875 9.371094 C 15.9375 9.371094 15.949219 9.363281 15.949219 9.347656 L 15.949219 7.953125 C 15.949219 7.941406 15.953125 7.9375 15.964844 7.9375 L 16.429688 7.9375 C 16.449219 7.9375 16.457031 7.925781 16.457031 7.910156 L 16.457031 7.621094 C 16.457031 7.605469 16.449219 7.59375 16.429688 7.59375 L 15.0625 7.59375 C 15.046875 7.59375 15.039062 7.605469 15.039062 7.621094 L 15.039062 7.910156 C 15.039062 7.925781 15.046875 7.9375 15.0625 7.9375 L 15.53125 7.9375 C 15.542969 7.9375 15.546875 7.941406 15.546875 7.953125 L 15.546875 9.347656 C 15.546875 9.363281 15.558594 9.371094 15.574219 9.371094 Z M 15.574219 9.371094 "/>
<path style=" stroke:none;fill-rule:nonzero;fill:rgb(25%,25%,25%);fill-opacity:1;" d="M 17.214844 7.59375 C 17.195312 7.59375 17.183594 7.605469 17.179688 7.621094 L 16.542969 9.347656 C 16.535156 9.363281 16.542969 9.371094 16.5625 9.371094 L 16.917969 9.371094 C 16.9375 9.371094 16.949219 9.363281 16.953125 9.347656 L 17.058594 9.035156 L 17.703125 9.035156 L 17.808594 9.347656 C 17.8125 9.363281 17.824219 9.371094 17.84375 9.371094 L 18.199219 9.371094 C 18.214844 9.371094 18.222656 9.363281 18.214844 9.347656 L 17.589844 7.621094 C 17.585938 7.605469 17.574219 7.59375 17.558594 7.59375 Z M 17.59375 8.707031 L 17.167969 8.707031 L 17.375 8.085938 L 17.386719 8.085938 Z M 17.59375 8.707031 "/>
<path style=" stroke:none;fill-rule:nonzero;fill:rgb(25%,25%,25%);fill-opacity:1;" d="M 18.46875 9.371094 L 18.847656 9.371094 C 18.871094 9.371094 18.878906 9.363281 18.890625 9.347656 L 19.222656 8.804688 L 19.230469 8.804688 L 19.558594 9.347656 C 19.570312 9.363281 19.582031 9.371094 19.605469 9.371094 L 19.984375 9.371094 C 20 9.371094 20.007812 9.355469 20 9.339844 L 19.445312 8.453125 L 19.960938 7.625 C 19.96875 7.609375 19.964844 7.59375 19.945312 7.59375 L 19.566406 7.59375 C 19.546875 7.59375 19.535156 7.601562 19.523438 7.621094 L 19.230469 8.101562 L 19.222656 8.101562 L 18.929688 7.621094 C 18.917969 7.601562 18.90625 7.59375 18.886719 7.59375 L 18.507812 7.59375 C 18.488281 7.59375 18.484375 7.609375 18.492188 7.625 L 19.003906 8.453125 L 18.453125 9.339844 C 18.441406 9.355469 18.449219 9.371094 18.46875 9.371094 Z M 18.46875 9.371094 "/>
<path style=" stroke:none;fill-rule:nonzero;fill:rgb(25%,25%,25%);fill-opacity:1;" d="M 20.429688 7.621094 L 20.429688 9.347656 C 20.429688 9.363281 20.441406 9.371094 20.457031 9.371094 L 20.800781 9.371094 C 20.816406 9.371094 20.828125 9.363281 20.828125 9.347656 L 20.828125 7.621094 C 20.828125 7.605469 20.816406 7.59375 20.800781 7.59375 L 20.457031 7.59375 C 20.441406 7.59375 20.429688 7.605469 20.429688 7.621094 Z M 20.429688 7.621094 "/>
</g>
</svg>
