<svg xmlns="http://www.w3.org/2000/svg" viewBox="0 0 159 159"><defs><style>.cls-1{fill:#ff9e18;}.cls-2{fill:#fff;}</style></defs><title>Asset 22</title><g id="Layer_2" data-name="Layer 2"><g id="Layer_1-2" data-name="Layer 1"><circle class="cls-1" cx="79.5" cy="79.5" r="76"/><path class="cls-2" d="M79.5,159A79.5,79.5,0,1,1,159,79.5,79.59,79.59,0,0,1,79.5,159Zm0-152A72.5,72.5,0,1,0,152,79.5,72.58,72.58,0,0,0,79.5,7Z"/><path class="cls-2" d="M119,75.65h0a2.91,2.91,0,0,1-2.75-2l-6.74-19.14a6.77,6.77,0,0,0-6.37-4.51H55.84a6.77,6.77,0,0,0-6.37,4.51L42.73,73.7a2.91,2.91,0,0,1-2.75,2,12,12,0,0,0-12,12V100.8a6.06,6.06,0,0,0,6.06,6.06H35.8v10.58A2.53,2.53,0,0,0,38.33,120h8.06a2.52,2.52,0,0,0,2.52-2.53V106.86h61.18v10.58a2.52,2.52,0,0,0,2.52,2.53h8.06a2.53,2.53,0,0,0,2.53-2.53V106.86H125a6.05,6.05,0,0,0,6-6.06V87.63A12,12,0,0,0,119,75.65ZM52.67,54.89a2.57,2.57,0,0,1,2.43-1.72h48.8a2.57,2.57,0,0,1,2.43,1.72l6.22,17.64H46.45Zm-10.94,45A7.81,7.81,0,1,1,49.54,92,7.81,7.81,0,0,1,41.73,99.84Zm60.69-2.19H57.47a1.25,1.25,0,0,1,0-2.5h45a1.25,1.25,0,0,1,0,2.5Zm0-4.37H57.47a1.25,1.25,0,1,1,0-2.49h45a1.25,1.25,0,0,1,0,2.49Zm0-4.37H57.47a1.25,1.25,0,1,1,0-2.49h45a1.25,1.25,0,0,1,0,2.49Zm14.85,10.93a7.81,7.81,0,1,1,7.8-7.81A7.81,7.81,0,0,1,117.27,99.84Z"/><path class="cls-2" d="M59.63,48.8H99.38a.92.92,0,0,0,.79-1.39l-4.76-7.93a.93.93,0,0,0-.79-.45H64.38a.93.93,0,0,0-.79.45l-4.75,7.93A.92.92,0,0,0,59.63,48.8Zm26.83-7.67h1.4v5.33h-1.4Zm-7.9,0,2.3,4.9,1.71-2.26-2-2.64h1.63l1.15,1.62,1.18-1.62h1.63l-2,2.64,2,2.69H84.56L83.37,44.8l-1.2,1.66H79.68l-.48-1.1H76.84l-.47,1.1H75l2.49-5.33Zm-7.42,0h4.6v1.14H74.15v4.19H72.73V42.27H71.14Z"/><polygon class="cls-2" points="78.02 42.62 77.29 44.31 78.75 44.31 78.02 42.62"/></g></g></svg>
