<?xml version="1.0" encoding="UTF-8"?>
<svg xmlns="http://www.w3.org/2000/svg" xmlns:xlink="http://www.w3.org/1999/xlink" width="32px" height="32px" viewBox="0 0 32 32" version="1.1">
<g id="surface1">
<path style=" stroke:none;fill-rule:nonzero;fill:rgb(100%,61.960784%,9.411765%);fill-opacity:1;" d="M 31.296875 16 C 31.296875 24.449219 24.449219 31.296875 16 31.296875 C 7.550781 31.296875 0.703125 24.449219 0.703125 16 C 0.703125 7.550781 7.550781 0.703125 16 0.703125 C 24.449219 0.703125 31.296875 7.550781 31.296875 16 Z M 31.296875 16 "/>
<path style=" stroke:none;fill-rule:nonzero;fill:rgb(100%,100%,100%);fill-opacity:1;" d="M 16 32 C 7.164062 32 0 24.835938 0 16 C 0 7.164062 7.164062 0 16 0 C 24.835938 0 32 7.164062 32 16 C 31.988281 24.832031 24.832031 31.988281 16 32 Z M 16 1.410156 C 7.941406 1.410156 1.410156 7.941406 1.410156 16 C 1.410156 24.058594 7.941406 30.589844 16 30.589844 C 24.058594 30.589844 30.589844 24.058594 30.589844 16 C 30.582031 7.945312 24.054688 1.417969 16 1.410156 Z M 16 1.410156 "/>
<path style=" stroke:none;fill-rule:nonzero;fill:rgb(100%,100%,100%);fill-opacity:1;" d="M 23.949219 15.226562 C 23.699219 15.222656 23.476562 15.0625 23.394531 14.824219 L 22.039062 10.96875 C 21.847656 10.425781 21.335938 10.0625 20.757812 10.0625 L 11.238281 10.0625 C 10.660156 10.0625 10.148438 10.425781 9.957031 10.96875 L 8.601562 14.832031 C 8.519531 15.070312 8.296875 15.234375 8.046875 15.234375 C 6.710938 15.234375 5.632812 16.316406 5.632812 17.648438 L 5.632812 20.285156 C 5.632812 20.960938 6.175781 21.507812 6.851562 21.507812 L 7.203125 21.507812 L 7.203125 23.636719 C 7.203125 23.773438 7.257812 23.902344 7.351562 24 C 7.449219 24.097656 7.578125 24.152344 7.714844 24.152344 L 9.335938 24.152344 C 9.472656 24.152344 9.601562 24.097656 9.695312 24 C 9.789062 23.90625 9.84375 23.777344 9.84375 23.640625 L 9.84375 21.507812 L 22.15625 21.507812 L 22.15625 23.636719 C 22.15625 23.769531 22.210938 23.898438 22.304688 23.996094 C 22.398438 24.089844 22.527344 24.144531 22.664062 24.144531 L 24.285156 24.144531 C 24.566406 24.144531 24.796875 23.917969 24.796875 23.636719 L 24.796875 21.507812 L 25.15625 21.507812 C 25.828125 21.5 26.367188 20.957031 26.363281 20.285156 L 26.363281 17.636719 C 26.363281 16.304688 25.28125 15.226562 23.949219 15.226562 Z M 10.601562 11.046875 C 10.671875 10.839844 10.871094 10.699219 11.089844 10.699219 L 20.910156 10.699219 C 21.128906 10.699219 21.328125 10.839844 21.398438 11.046875 L 22.652344 14.597656 L 9.347656 14.597656 Z M 8.398438 20.105469 C 7.53125 20.105469 6.828125 19.402344 6.828125 18.539062 C 6.824219 17.671875 7.523438 16.964844 8.386719 16.960938 C 9.253906 16.953125 9.960938 17.648438 9.96875 18.515625 C 9.972656 18.933594 9.808594 19.335938 9.511719 19.632812 C 9.21875 19.925781 8.816406 20.09375 8.398438 20.09375 Z M 20.613281 19.664062 L 11.566406 19.664062 C 11.425781 19.664062 11.316406 19.550781 11.316406 19.410156 C 11.316406 19.273438 11.425781 19.160156 11.566406 19.160156 L 20.621094 19.160156 C 20.761719 19.160156 20.875 19.273438 20.875 19.410156 C 20.875 19.550781 20.761719 19.664062 20.621094 19.664062 Z M 20.613281 18.785156 L 11.566406 18.785156 C 11.472656 18.792969 11.378906 18.746094 11.328125 18.664062 C 11.28125 18.585938 11.28125 18.480469 11.328125 18.402344 C 11.378906 18.320312 11.472656 18.273438 11.566406 18.28125 L 20.621094 18.28125 C 20.753906 18.292969 20.851562 18.402344 20.851562 18.53125 C 20.851562 18.664062 20.753906 18.773438 20.621094 18.785156 Z M 20.613281 17.902344 L 11.566406 17.902344 C 11.472656 17.914062 11.378906 17.867188 11.328125 17.785156 C 11.28125 17.703125 11.28125 17.601562 11.328125 17.519531 C 11.378906 17.441406 11.472656 17.394531 11.566406 17.402344 L 20.621094 17.402344 C 20.753906 17.414062 20.851562 17.523438 20.851562 17.652344 C 20.851562 17.785156 20.753906 17.890625 20.621094 17.902344 Z M 23.601562 20.105469 C 22.734375 20.105469 22.027344 19.402344 22.027344 18.53125 C 22.027344 17.664062 22.730469 16.960938 23.597656 16.960938 C 24.46875 16.960938 25.171875 17.664062 25.171875 18.53125 C 25.164062 19.394531 24.464844 20.09375 23.601562 20.09375 Z M 23.601562 20.105469 "/>
<path style=" stroke:none;fill-rule:nonzero;fill:rgb(100%,100%,100%);fill-opacity:1;" d="M 12 9.820312 L 20 9.820312 C 20.066406 9.820312 20.128906 9.785156 20.160156 9.726562 C 20.195312 9.667969 20.195312 9.597656 20.160156 9.542969 L 19.203125 7.945312 C 19.167969 7.890625 19.109375 7.855469 19.042969 7.855469 L 12.957031 7.855469 C 12.890625 7.855469 12.832031 7.890625 12.796875 7.945312 L 11.84375 9.542969 C 11.808594 9.597656 11.808594 9.667969 11.839844 9.726562 C 11.875 9.785156 11.933594 9.820312 12 9.820312 Z M 17.402344 8.277344 L 17.683594 8.277344 L 17.683594 9.351562 L 17.402344 9.351562 Z M 15.8125 8.277344 L 16.273438 9.265625 L 16.617188 8.808594 L 16.214844 8.277344 L 16.542969 8.277344 L 16.773438 8.605469 L 17.011719 8.277344 L 17.339844 8.277344 L 16.9375 8.808594 L 17.339844 9.351562 L 17.019531 9.351562 L 16.777344 9.015625 L 16.539062 9.351562 L 16.035156 9.351562 L 15.941406 9.128906 L 15.464844 9.128906 L 15.371094 9.351562 L 15.09375 9.351562 L 15.59375 8.277344 Z M 14.316406 8.277344 L 15.242188 8.277344 L 15.242188 8.507812 L 14.921875 8.507812 L 14.921875 9.351562 L 14.636719 9.351562 L 14.636719 8.507812 L 14.316406 8.507812 Z M 14.316406 8.277344 "/>
<path style=" stroke:none;fill-rule:nonzero;fill:rgb(100%,100%,100%);fill-opacity:1;" d="M 15.703125 8.578125 L 15.554688 8.917969 L 15.847656 8.917969 Z M 15.703125 8.578125 "/>
</g>
</svg>
